<?xml version="1.0" encoding="UTF-8" standalone="no"?><!-- Created with Inkscape (http://www.inkscape.org/) -->

<svg xmlns:inkscape="http://www.inkscape.org/namespaces/inkscape" xmlns:sodipodi="http://sodipodi.sourceforge.net/DTD/sodipodi-0.dtd"
    height="108" id="svg1" version="1.1" viewBox="0 0 108 108" width="108" xmlns="http://www.w3.org/2000/svg"
    inkscape:export-batch-name="icon" inkscape:export-batch-path="../../Downloads"
    inkscape:export-filename="../../Downloads/icon_foreground.svg" inkscape:export-xdpi="96"
    inkscape:export-ydpi="96" inkscape:version="1.4.2 (ebf0e940d0, 2025-05-08)"
    sodipodi:docname="icon.svg" xml:space="preserve"><sodipodi:namedview
     bordercolor="#000000"
     borderopacity="0.25"
     id="namedview1"
     labelstyle="default"
     pagecolor="#ffffff"
     showgrid="true"
     showguides="true"
     inkscape:clip-to-page="false"
     inkscape:current-layer="g36"
     inkscape:cx="49.0625"
     inkscape:cy="57.9375"
     inkscape:deskcolor="#d1d1d1"
     inkscape:document-units="px"
     inkscape:lockguides="true"
     inkscape:pagecheckerboard="true"
     inkscape:pageopacity="0.0"
     inkscape:showpageshadow="2"
     inkscape:window-height="1406"
     inkscape:window-maximized="0"
     inkscape:window-width="2560"
     inkscape:window-x="0"
     inkscape:window-y="0"
     inkscape:zoom="8"><inkscape:grid
       color="#0099e5"
       empcolor="#0099e5"
       empopacity="0.30196078"
       empspacing="5"
       enabled="true"
       id="grid35"
       opacity="0.14901961"
       originx="0"
       originy="0"
       spacingx="1"
       spacingy="1"
       units="px"
       visible="true" /></sodipodi:namedview>
    <defs id="defs1"><inkscape:path-effect
       apply_no_radius="true"
       apply_with_radius="true"
       chamfer_steps="1"
       effect="fillet_chamfer"
       flexible="false"
       hide_knots="false"
       id="path-effect16"
       is_visible="true"
       lpeversion="1"
       method="auto"
       mode="F"
       nodesatellites_param="F,0,0,1,0,0,0,1 @ F,0,0,1,0,0,0,1 @ F,0,0,1,0,0,0,1 @ F,0,0,1,0,0,0,1 @ F,0,0,1,0,0,0,1 @ F,0,0,1,0,0,0,1 @ F,0,0,1,0,0,0,1 @ F,0,0,1,0,0,0,1 @ F,0,0,1,0,0,0,1 @ F,0,0,1,0,0,0,1 @ F,0,0,1,0,0,0,1 @ F,0,0,1,0,0,0,1 @ F,0,0,1,0,0,0,1 @ F,0,0,1,0,0,0,1 @ F,0,0,1,0,0,0,1 @ F,0,0,1,0,0,0,1 @ F,0,0,1,0,0,0,1 @ F,0,0,1,0,0,0,1"
       only_selected="false"
       radius="0"
       unit="px"
       use_knot_distance="true" />
        <inkscape:path-effect apply_no_radius="true" apply_with_radius="true" chamfer_steps="1"
            effect="fillet_chamfer"
            flexible="false"
            hide_knots="false" id="path-effect15" is_visible="true" lpeversion="1" method="auto" mode="F"
            nodesatellites_param="F,0,0,1,0,0,0,1 @ F,0,0,1,0,0,0,1 @ F,0,0,1,0,0,0,1 @ F,0,0,1,0,0,0,1 @ F,0,0,1,0,0,0,1 @ F,0,0,1,0,0,0,1 @ F,0,0,1,0,0,0,1 @ F,0,0,1,0,0,0,1 @ F,0,0,1,0,0,0,1 @ F,0,0,1,0,0,0,1 @ F,0,0,1,0,0,0,1 @ F,0,0,1,0,0,0,1 @ F,0,0,1,0,0,0,1 @ F,0,0,1,0,0,0,1 @ F,0,0,1,0,0,0,1 @ F,0,0,1,0,0,0,1 @ F,0,0,1,0,0,0,1 @ F,0,0,1,0,0,0,1" only_selected="false" radius="0"
            unit="px" use_knot_distance="true" />
        <inkscape:path-effect apply_no_radius="true" apply_with_radius="true" chamfer_steps="1"
            effect="fillet_chamfer"
            flexible="false"
            hide_knots="false" id="path-effect14" is_visible="true" lpeversion="1" method="auto" mode="F"
            nodesatellites_param="F,0,0,1,0,0,0,1 @ F,0,0,1,0,0,0,1 @ F,0,0,1,0,0,0,1 @ F,0,0,1,0,0,0,1 @ F,0,0,1,0,0,0,1 @ F,0,0,1,0,0,0,1 @ F,0,0,1,0,0,0,1 @ F,0,0,1,0,0,0,1 @ F,0,0,1,0,0,0,1 @ F,0,0,1,0,0,0,1 @ F,0,0,1,0,0,0,1 @ F,0,0,1,0,0,0,1 @ F,0,0,1,0,0,0,1 @ F,0,0,1,0,0,0,1 @ F,0,0,1,0,0,0,1 @ F,0,0,1,0,0,0,1 @ F,0,0,1,0,0,0,1 @ F,0,0,1,0,0,0,1" only_selected="false" radius="0"
            unit="px" use_knot_distance="true" />
        <radialGradient cx="0" cy="0" gradientTransform="matrix(149.00037,174.00022,-174.00022,149.00037,157,130)" gradientUnits="userSpaceOnUse" id="radialGradient20"
            r="1"><stop
         style="stop-color:#c0d9b4;stop-opacity:1;"
         id="stop19"
         offset="0"
         stop-color="#376A80" />
            <stop style="stop-color:#ffb380;stop-opacity:1;" id="stop6" offset="0.5"
                stop-color="#376A80" />
            <stop style="stop-color:#8dcaff;stop-opacity:1;" id="stop20" offset="1"
                stop-color="#013145" /></radialGradient>
        <filter color-interpolation-filters="sRGB" filterUnits="userSpaceOnUse" height="285.54599" id="filter0_d_32_1396"
            width="285.54599" x="75.226799" y="75.226799"><feFlood
         flood-opacity="0"
         id="feFlood1"
         result="BackgroundImageFix" />
            <feColorMatrix id="feColorMatrix1" in="SourceAlpha"
                result="hardAlpha" type="matrix"
                values="0 0 0 0 0 0 0 0 0 0 0 0 0 0 0 0 0 0 127 0" />
            <feOffset dx="4" dy="4" id="feOffset1" />
            <feComposite id="feComposite1" in2="hardAlpha" operator="out" />
            <feColorMatrix id="feColorMatrix2"
                type="matrix"
                values="0 0 0 0 0.196078 0 0 0 0 0.423529 0 0 0 0 0.913725 0 0 0 1 0" />
            <feBlend id="feBlend2" in2="BackgroundImageFix" mode="normal"
                result="effect1_dropShadow_32_1396" />
            <feBlend id="feBlend3" in="SourceGraphic" in2="effect1_dropShadow_32_1396"
                mode="normal" result="shape" /></filter>
        <filter style="color-interpolation-filters:sRGB" height="1.0261538" id="filter18"
            width="1.0261538" x="-0.0092307692" y="-0.0092307692" inkscape:label="Drop Shadow"><feFlood
         flood-color="rgb(0,0,0)"
         flood-opacity="0.498039"
         id="feFlood17"
         in="SourceGraphic"
         result="flood" />
            <feGaussianBlur id="feGaussianBlur17" in="SourceGraphic" result="blur"
                stdDeviation="3" />
            <feOffset dx="6.000000" dy="6.000000" id="feOffset17" in="blur" result="offset" />
            <feComposite id="feComposite17" in="flood" in2="offset" operator="in" result="comp1" />
            <feComposite id="feComposite18" in="SourceGraphic" in2="comp1" operator="over"
                result="comp2" /></filter>
        <filter style="color-interpolation-filters:sRGB;" height="1.7036355" id="filter35"
            width="1.6349663" x="-0.26274467" y="-0.29115952" inkscape:label="Drop Shadow"><feFlood
         flood-color="rgb(0,0,0)"
         flood-opacity="0.498039"
         id="feFlood34"
         in="SourceGraphic"
         result="flood" />
            <feGaussianBlur id="feGaussianBlur34" in="SourceGraphic" result="blur"
                stdDeviation="3.000000" />
            <feOffset dx="3.000000" dy="3.000000" id="feOffset34" in="blur" result="offset" />
            <feComposite id="feComposite34" in="flood" in2="offset" operator="in" result="comp1" />
            <feComposite id="feComposite35" in="SourceGraphic" in2="comp1" operator="over"
                result="comp2" /></filter></defs>
    <g style="display:inline" id="layer1" transform="translate(-11.73588,-12.22692)"
        inkscape:groupmode="layer" inkscape:label="background"><rect
       style="fill:#ffffff;fill-opacity:1;stroke-width:14.7847"
       height="108"
       id="rect1"
       width="108"
       x="11.73588"
       y="12.22692"
       inkscape:label="rect1" /></g>
    <g style="display:inline" id="layer2" inkscape:groupmode="layer" inkscape:label="foreground"><g
       id="g37"
       inkscape:label="jigsaw"><path
         style="display:inline;mix-blend-mode:normal;fill:#8dcaff;fill-opacity:1;stroke-width:0.0653198"
         d="M 41.525954,75.756052 31.918442,73.251415 Q 29.8326,72.707645 28.734459,70.835043 27.636316,68.96244 28.180086,66.876599 l 2.504639,-9.607512 q 3.033951,0.790938 5.81199,-0.543681 2.778039,-1.334619 3.552498,-4.305363 0.774461,-2.970745 -0.998427,-5.491772 -1.772888,-2.521026 -4.806839,-3.311964 l 2.504638,-9.607513 q 0.543769,-2.085841 2.416372,-3.183983 1.872602,-1.098141 3.958443,-0.554372 l 10.113171,2.636462 q 0.692071,-2.654708 3.002942,-4.009862 2.310871,-1.355153 4.965578,-0.663082 2.654708,0.692071 4.009861,3.002942 1.355154,2.31087 0.663083,4.965578 l 10.11317,2.63646 q 2.085842,0.543771 3.183984,2.416373 1.098142,1.872602 0.554372,3.958444 L 77.0931,55.326925 q 2.654707,0.69207 4.00986,3.002941 1.355155,2.310871 0.663083,4.965579 -0.692071,2.654706 -3.002942,4.009859 -2.310871,1.355155 -4.965578,0.663084 l -2.636461,10.11317 q -0.543769,2.085842 -2.416371,3.183984 -1.872603,1.098141 -3.958444,0.554371 l -9.607513,-2.504637 q 0.823895,-3.160366 -0.59041,-5.891676 -1.414305,-2.731309 -4.258635,-3.472814 -2.844328,-0.741505 -5.412085,0.951699 -2.567757,1.693202 -3.39165,4.853567 z"
         id="path1-5-5"
         inkscape:label="back" /><path
        style="display:inline;mix-blend-mode:normal;fill:#c0d9b4;fill-opacity:1;stroke-width:0.0653198"
        d="M 39.525954,73.756052 29.918442,71.251415 Q 27.8326,70.707645 26.734459,68.835043 25.636316,66.96244 26.180086,64.876599 l 2.504639,-9.607512 q 3.033951,0.790938 5.81199,-0.543681 2.778039,-1.334619 3.552498,-4.305363 0.774461,-2.970745 -0.998427,-5.491772 -1.772888,-2.521026 -4.806839,-3.311964 l 2.504638,-9.607513 q 0.543769,-2.085841 2.416372,-3.183983 1.872602,-1.098141 3.958443,-0.554372 l 10.113171,2.636462 q 0.692071,-2.654708 3.002942,-4.009862 2.310871,-1.355153 4.965578,-0.663082 2.654708,0.692071 4.009861,3.002942 1.355154,2.31087 0.663083,4.965578 l 10.11317,2.63646 q 2.085842,0.543771 3.183984,2.416373 1.098142,1.872602 0.554372,3.958444 L 75.0931,53.326925 q 2.654707,0.69207 4.00986,3.002941 1.355155,2.310871 0.663083,4.965579 -0.692071,2.654706 -3.002942,4.009859 -2.310871,1.355155 -4.965578,0.663084 l -2.636461,10.11317 q -0.543769,2.085842 -2.416371,3.183984 -1.872603,1.098141 -3.958444,0.554371 l -9.607513,-2.504637 q 0.823895,-3.160366 -0.59041,-5.891676 -1.414305,-2.731309 -4.258635,-3.472814 -2.844328,-0.741505 -5.412085,0.951699 -2.567757,1.693202 -3.39165,4.853567 z"
        id="path1-5"
        inkscape:label="fore" /></g>
        <path
            style="font-weight:600;font-size:32px;font-family:'Inter Display';-inkscape-font-specification:'Inter Display, Semi-Bold';text-align:center;text-anchor:middle;mix-blend-mode:normal;fill:#3f5b7f;fill-opacity:1;stroke:none;stroke-width:1;stroke-linecap:round;stroke-dasharray:none;stroke-opacity:1"
            aria-label="N"
            d="m 46.247124,63.416115 c -4.438115,-4.438114 -4.438115,-14.391212 0,-18.829326 0.848902,-0.848901 2.508519,-0.496466 3.601583,0 3.794339,1.723377 4.299405,10.810626 8.226023,9.414662 2.958726,-1.051865 -1.929583,-7.233401 0.329307,-9.414662 0.803006,-0.775411 2.559511,-0.78933 3.348839,0 4.438116,4.438114 4.438116,14.391212 0,18.829326 -0.851879,0.85188 -2.517975,0.499648 -3.61422,0 -3.783407,-1.724406 -4.259875,-10.793248 -8.182533,-9.414664 -2.963024,1.04133 1.891506,7.238246 -0.3728,9.414664 -0.801756,0.770636 -2.549849,0.78635 -3.336199,0 z"
            id="text12" inkscape:label="n" sodipodi:nodetypes="aaaaaaaaaaa" /></g>
    <g style="display:none" id="g36" inkscape:groupmode="layer" inkscape:label="mono"><path
       style="display:inline;mix-blend-mode:normal;fill:#1c71d8;fill-opacity:1;stroke-width:0.0653204"
       d="m 58.261315,27.002823 c -1.052402,0.03152 -2.058974,0.328648 -3.021834,0.893304 -1.540577,0.903451 -2.542876,2.241241 -3.004256,4.011075 L 42.123028,29.27044 c -1.390559,-0.362519 -2.709869,-0.177588 -3.958268,0.554519 -1.248399,0.732106 -2.053676,1.792708 -2.416189,3.183292 l -2.505677,9.607403 c 2.02263,0.5273 3.624887,1.632021 4.806809,3.312733 1.181924,1.680712 1.515062,3.511927 0.998755,5.492456 -0.516304,1.980528 -1.700349,3.415353 -3.552372,4.305114 -1.852021,0.889761 -3.789326,1.070634 -5.811957,0.543334 l -2.504079,9.607403 c -0.362512,1.390583 -0.177583,2.709918 0.55451,3.95834 0.732092,1.248422 1.792674,2.053714 3.183232,2.416233 l 9.607227,2.505724 c 0.549262,-2.106946 1.680737,-3.726019 3.392572,-4.85484 1.711834,-1.12882 3.51464,-1.445177 5.410857,-0.950832 1.896217,0.494344 3.315824,1.651633 4.258692,3.472536 0.942868,1.820902 1.140524,3.78502 0.591263,5.891966 l 9.607228,2.504125 c 1.390557,0.36252 2.709866,0.177588 3.958265,-0.55452 1.2484,-0.732106 2.053678,-1.792706 2.41619,-3.18329 L 72.7968,66.968153 c 1.769801,0.461389 3.424434,0.240266 4.965012,-0.663186 1.540578,-0.90345 2.542876,-2.239643 3.004255,-4.009476 0.461381,-1.769834 0.240261,-3.424498 -0.663173,-4.965104 -0.903434,-1.540606 -2.2412,-2.541325 -4.011001,-3.002713 l 2.636714,-10.113982 c 0.362513,-1.390584 0.177584,-2.709918 -0.554509,-3.95834 -0.732093,-1.248421 -1.792674,-2.053714 -3.183233,-2.416234 L 64.87707,35.202357 c 0.46138,-1.769835 0.24026,-3.424498 -0.663174,-4.965105 -0.903434,-1.540605 -2.239602,-2.542923 -4.009403,-3.004311 -0.663676,-0.173021 -1.311738,-0.249027 -1.943178,-0.230118 z m 1.892042,16.880075 c 0.645588,-0.0018 1.289841,0.193611 1.689095,0.592873 4.489717,4.4898 4.489718,14.55881 0,19.048611 -0.861785,0.861801 -2.547253,0.505466 -3.656243,0 -3.827399,-1.74449 -4.309415,-10.918946 -8.277685,-9.524306 -2.997475,1.053457 1.913504,7.322542 -0.37713,9.524306 -0.811077,0.779611 -2.579501,0.795507 -3.374994,0 -4.489717,-4.489801 -4.489717,-14.558811 0,-19.048611 0.858773,-0.858788 2.537687,-0.502248 3.64346,0 3.838457,1.743446 4.350155,10.936526 8.322428,9.524305 2.993127,-1.064115 -1.952769,-7.317643 0.332385,-9.524305 0.406172,-0.39222 1.053096,-0.591112 1.698684,-0.592873 z"
       id="path35"
       inkscape:label="path1-5" /></g></svg>
